<svg width="34" height="34" viewBox="0 0 34 34" fill="none" xmlns="http://www.w3.org/2000/svg">
<path fill-rule="evenodd" clip-rule="evenodd" d="M21.0891 6.01466C21.0891 6.01466 28.3769 13.3043 31.2152 16.1425C31.4532 16.3787 31.5714 16.6894 31.5714 17.0001C31.5714 17.3108 31.4532 17.6214 31.2152 17.8577C28.3785 20.6959 21.0924 27.9823 21.0924 27.9823C20.8576 28.2169 20.5483 28.3334 20.2391 28.3334C19.9298 28.3318 19.6189 28.2137 19.3809 27.9758C18.9065 27.5017 18.9049 26.7363 19.3744 26.2655L27.4313 18.2137H3.64291C2.97258 18.2137 2.42855 17.67 2.42855 17.0001C2.42855 16.3302 2.97258 15.7865 3.64291 15.7865H27.4313L19.3712 7.72987C18.9033 7.26223 18.9065 6.49848 19.3809 6.02437C19.6189 5.78651 19.9298 5.66676 20.2391 5.66676C20.5483 5.66515 20.8543 5.78165 21.0891 6.01466" fill="white"/>
</svg>
