<svg width="410" height="50" viewBox="0 0 410 50" fill="none" xmlns="http://www.w3.org/2000/svg">
<path fill-rule="evenodd" clip-rule="evenodd" d="M344.121 43.4643C345.042 40.8181 345.963 38.205 347.015 35.2611C347.18 35.8565 347.278 36.1542 347.41 36.4188C347.66 37.2327 347.891 38.0558 348.123 38.8796C348.654 40.7678 349.187 42.6603 349.942 44.4566C350.666 46.1767 352.146 47.5328 354.251 47.3013C354.747 47.2559 355.213 46.8681 355.679 46.4795L355.679 46.4794C355.893 46.3016 356.106 46.1236 356.323 45.9782C356.192 45.7983 356.056 45.6184 355.92 45.4369L355.92 45.4367L355.919 45.4366C355.679 45.1176 355.435 44.7939 355.205 44.4566C355.047 44.2192 354.856 43.9934 354.664 43.7687C354.296 43.3357 353.932 42.9066 353.823 42.4058C353.231 39.6604 352.672 36.8819 352.376 34.0704C351.85 29.208 351.455 24.3456 352.541 19.4502C352.903 17.8294 353.692 17.1348 355.271 16.9694C357.936 16.7035 360.598 16.4102 363.258 16.117C368.872 15.4986 374.48 14.8807 380.103 14.5216C386.866 14.0921 393.646 13.8864 400.418 13.6809L400.418 13.6808C403.033 13.6015 405.646 13.5222 408.257 13.4301C408.717 13.4301 409.145 13.397 410 13.3309C409.329 13.0097 408.707 12.6954 408.114 12.3959C406.874 11.7702 405.763 11.2089 404.606 10.7839C403.389 10.3208 402.073 9.99005 400.791 9.99005C400.202 9.99606 399.613 10.0018 399.024 10.0075C393.133 10.0649 387.243 10.1224 381.353 10.4531C376.446 10.726 371.539 11.1709 366.632 11.6157C364.402 11.818 362.171 12.0202 359.941 12.2062C359.332 12.2566 358.72 12.3525 358.108 12.4485C355.909 12.7932 353.704 13.1388 351.62 11.3793C350.567 10.4862 348.857 11.1478 348.397 12.5701C347.886 14.1735 346.758 14.3468 345.521 14.5367L345.404 14.5547C344.154 14.7863 343.693 14.2901 343.989 13.0332C344.182 12.2064 344.378 11.3796 344.574 10.5519L344.575 10.5504C345.014 8.69619 345.455 6.83715 345.864 4.96229C346.028 4.20151 346.094 3.37458 346.028 2.58072C345.897 1.12532 344.318 -0.0323858 342.674 0.000691523C341.194 0.0337689 340.075 1.02609 339.944 2.38226C339.831 3.40975 339.716 4.43496 339.602 5.45907L339.602 5.45951L339.602 5.46002L339.601 5.4609L339.601 5.46173C339.28 8.32702 338.96 11.1838 338.694 14.0586C338.562 15.4147 337.97 15.977 336.589 16.2417C328.597 17.7963 320.703 19.7809 313.105 22.8241C312.3 23.1303 311.582 23.697 310.788 24.3232C310.381 24.6438 309.955 24.98 309.487 25.3049C310.15 25.705 310.591 25.9557 310.998 26.1876C311.197 26.3007 311.387 26.4094 311.592 26.5287C308.83 26.9918 306.823 28.2487 305.245 30.3326C302.876 33.475 300.936 36.8489 299.752 40.6197C299.259 42.1412 296.265 44.3243 294.72 44.2251C294.259 44.192 293.667 43.8612 293.338 43.4643C290.247 39.7927 289.128 35.3604 288.767 30.7295C288.339 24.8749 289.457 19.2517 291.595 13.827C291.858 13.1986 292.023 12.5039 292.023 11.8424C292.023 10.5524 291.332 9.52697 290.049 9.36158C289.929 9.34603 289.806 9.32815 289.682 9.31007C288.484 9.13581 287.162 8.94342 286.596 10.6516C286.377 11.3228 286.122 11.9859 285.868 12.648L285.868 12.6481L285.868 12.6481L285.868 12.6481C285.395 13.8784 284.923 15.1052 284.688 16.374C283.866 20.8725 281.235 23.9156 277.617 26.3303C274.229 28.6126 270.282 28.6457 267.552 26.4295C266.598 25.6356 266.237 24.7756 266.533 23.5518C266.77 22.5991 266.922 21.6465 267.075 20.6939C267.113 20.4557 267.151 20.2176 267.191 19.9794L268.473 12.3385C268.581 11.6762 268.703 11.0139 268.826 10.3504L268.826 10.3504L268.826 10.3504L268.826 10.3503L268.826 10.3503C269.076 8.99255 269.327 7.62989 269.46 6.25231C269.526 5.72307 268.868 4.86306 268.309 4.63152C267.454 4.26767 266.434 4.13536 265.48 4.10228C262.981 4.03613 262.093 5.29307 262.421 7.80694C262.434 7.89978 262.449 7.99633 262.465 8.09528C262.61 9.01877 262.789 10.1512 261.303 10.4201C259.198 10.7839 258.409 11.6439 257.85 13.6616C256.83 17.4986 257.685 21.0379 259.231 24.5441C259.724 25.6687 259.922 27.091 259.757 28.3149C259.319 31.8064 258.829 35.2979 258.34 38.7894C257.949 41.5826 257.557 44.3758 257.192 47.169C257.093 47.7313 257.422 48.4921 257.817 48.9221C259.001 50.179 260.941 50.3113 262.717 49.4513C264.691 48.4921 265.743 45.9782 264.954 42.9682C264.287 40.4512 264.664 38.0274 265.029 35.6797C265.24 34.3251 265.447 32.9959 265.447 31.6888C266.718 31.7801 267.948 31.8816 269.155 31.9813H269.155H269.155C271.01 32.1345 272.811 32.2832 274.624 32.3834C277.142 32.5354 279.082 31.2137 281.093 29.8435C281.708 29.4241 282.33 29.0002 282.978 28.6126C283.047 29.2591 283.117 29.8134 283.181 30.3289L283.181 30.329C283.239 30.7893 283.293 31.2188 283.34 31.6557C283.833 35.9888 284.885 40.1235 287.089 43.9274C289.095 47.4336 292.516 49.5175 295.805 48.4259C296.748 48.1021 297.626 47.5843 298.508 47.0647C298.887 46.8411 299.267 46.6172 299.653 46.4082C301.133 49.5836 305.442 51.039 308.27 48.7236C308.928 48.1944 309.553 47.599 310.145 46.9705C311.078 45.9833 311.974 44.9592 312.806 44.0083L312.807 44.0064L312.809 44.0048C313.091 43.6825 313.365 43.3686 313.632 43.0674C314.175 43.4426 314.691 43.8351 315.197 44.2203C316.253 45.0236 317.267 45.7947 318.401 46.309C322.479 48.1282 326.294 47.0697 329.682 44.4236C331.079 43.3413 332.412 42.1629 333.803 40.9329C334.41 40.396 335.028 39.8494 335.668 39.2966C335.69 39.4624 335.711 39.6197 335.731 39.77L335.731 39.7712C335.798 40.2796 335.855 40.7075 335.931 41.1158C335.986 41.4675 336.036 41.8191 336.086 42.1701L336.086 42.1709L336.086 42.171L336.087 42.1711C336.215 43.0742 336.343 43.9724 336.556 44.8536C336.984 46.6067 338.266 47.5328 339.977 47.7975C341.621 48.0621 342.476 46.9374 343.167 45.6805C343.562 44.9859 343.858 44.2251 344.121 43.4643ZM318.499 36.9812C318.532 34.9634 318.269 34.5665 316.23 33.6404C319.618 31.788 316.888 28.2157 314.059 26.8926C321.69 24.6764 329.485 22.4271 337.345 20.1779C337.398 20.4006 337.455 20.5714 337.501 20.7088L337.501 20.709C337.571 20.9185 337.615 21.0504 337.576 21.1702C337.407 21.7854 337.243 22.4033 337.079 23.0219L337.078 23.0232C335.829 27.7257 334.568 32.469 331.458 36.3858C329.254 39.1312 326.59 41.4466 323.137 42.472C320.736 43.1666 318.434 41.2151 318.466 38.7012C318.466 38.4202 318.475 38.1309 318.483 37.8416L318.483 37.8412L318.483 37.8408C318.491 37.5515 318.499 37.2622 318.499 36.9812ZM305.179 44.2251C305.245 44.2747 305.319 44.3326 305.393 44.3905C305.467 44.4484 305.541 44.5063 305.606 44.5559C305.99 44.1039 306.392 43.6629 306.794 43.2219L306.794 43.2217C307.598 42.3397 308.402 41.4576 309.06 40.4874C310.441 38.4035 311.691 36.2204 312.809 34.0042C313.065 33.5141 313.009 32.8593 312.954 32.2142C312.931 31.945 312.908 31.6774 312.908 31.4242C312.648 31.5222 312.37 31.5987 312.094 31.6749C311.53 31.8302 310.97 31.9845 310.573 32.3173C309.586 33.1773 308.797 34.2688 308.04 35.3273C306.165 38.0066 305.146 40.9504 305.179 44.2251ZM341.374 37.0142C341.259 36.9894 341.144 36.9646 341.029 36.9481C341.081 36.5046 341.133 36.0608 341.185 35.6167C341.627 31.8534 342.071 28.0664 342.542 24.2795C342.641 23.2541 342.805 22.2617 343.035 21.2363C343.562 18.8879 343.759 18.7225 346.62 18.7886C346.332 19.9683 346.051 21.1468 345.77 22.3229C344.578 27.3136 343.397 32.262 341.72 37.0804C341.605 37.0639 341.49 37.039 341.374 37.0142Z" fill="white"/>
<path fill-rule="evenodd" clip-rule="evenodd" d="M117.059 37.2388C117.221 37.196 117.381 37.1535 117.54 37.1136C117.579 37.1792 117.613 37.2448 117.646 37.3083C117.696 37.405 117.744 37.4968 117.803 37.5766C117.653 37.7084 117.509 37.8455 117.365 37.9819C117.004 38.3248 116.648 38.6631 116.224 38.8997C111.817 41.3475 107.278 43.299 102.246 44.0267C99.0227 44.4898 95.9968 44.1921 93.0038 42.9352C90.5041 41.9098 89.2543 39.462 90.5699 37.8413C93.2998 34.5335 97.4769 30.9612 102.937 33.2104C103.322 33.3656 103.688 33.5815 104.049 33.7948C104.15 33.8543 104.251 33.9135 104.351 33.9712C104.252 34.0907 104.156 34.2222 104.058 34.3558C103.832 34.6658 103.597 34.987 103.298 35.1951C100.897 36.882 98.2991 37.9736 95.3719 38.3374C94.9443 38.3705 94.155 39.1644 94.2207 39.4951C94.5825 41.6782 96.2928 42.9352 98.4965 42.869C102.443 42.7698 105.634 40.8844 108.265 38.139C109.416 36.9151 109.745 35.1951 109.252 33.3097C108.166 29.2081 102.246 26.7273 99.0556 26.8927C94.9114 27.1242 91.6553 29.2081 88.4649 31.4904C86.7218 32.7143 85.7022 34.4343 85.4062 36.4851C84.5181 42.8029 88.1032 47.1029 94.0563 48.9552C97.8716 50.1791 101.72 49.9806 105.403 48.9222C108.89 47.8968 112.245 46.4083 115.534 44.8537C116.925 44.2111 118.206 43.3299 119.498 42.4417C120.067 42.0496 120.639 41.6561 121.224 41.2813C121.347 41.8039 121.456 42.3123 121.562 42.8077C121.853 44.1623 122.123 45.42 122.605 46.6068C122.832 47.1553 123.421 47.5459 124.001 47.9314C124.261 48.1038 124.519 48.2751 124.743 48.4591C124.927 48.1922 125.12 47.9317 125.313 47.6717C125.741 47.0937 126.168 46.5178 126.486 45.8791C126.631 45.5874 126.545 45.1709 126.463 44.7736C126.434 44.6301 126.405 44.4891 126.387 44.3575C126.256 43.3817 126.124 42.4141 125.993 41.4466C125.861 40.4791 125.73 39.5116 125.598 38.5359C125.466 37.5436 125.861 37.0474 126.947 37.1136C127.152 37.1247 127.358 37.1362 127.564 37.1477C129.2 37.2391 130.832 37.3303 132.439 37.2128C133.689 37.1136 134.117 37.6759 134.281 38.7013C134.325 38.9438 134.354 39.1938 134.383 39.4437C134.442 39.9435 134.5 40.4433 134.676 40.8844C136.386 44.9529 138.787 47.1029 142.964 43.6298C143.502 43.1756 144.025 42.7072 144.544 42.2432C144.819 41.9976 145.092 41.7533 145.365 41.5128C151.285 48.0454 156.8 44.6849 162.455 41.2387C162.613 41.1427 162.771 41.0465 162.928 40.9505C162.957 41.092 162.979 41.2282 163.001 41.3597C163.057 41.6893 163.107 41.9899 163.224 42.2736C163.383 42.6589 163.529 43.0548 163.675 43.4516C164.042 44.4515 164.412 45.4566 165.001 46.3091C166.217 48.0952 168.717 47.8306 169.638 45.9452C170.197 44.8206 169.868 42.4721 168.849 41.6121C167.763 40.6859 167.336 39.6936 167.763 38.2713C168.257 36.6174 168.75 34.9635 169.145 33.2766C169.507 31.6558 167.961 29.2081 166.415 28.9765C165.165 28.8111 164.145 29.3404 163.619 30.6966C161.777 35.592 157.896 37.9736 153.061 39.032C150.924 39.4951 149.641 38.5359 148.95 36.5182C148.654 35.6582 148.194 34.7981 147.667 34.0704C146.648 32.7143 145.727 32.6481 144.576 33.9051C144.049 34.4839 143.564 35.0876 143.079 35.6912C142.594 36.2949 142.109 36.8986 141.583 37.4774C141.122 37.9736 140.53 38.4036 139.938 38.7013C139.804 38.7685 139.565 38.6382 139.322 38.506C139.206 38.4432 139.09 38.38 138.984 38.3374C139.056 38.2292 139.115 38.1122 139.173 37.996C139.275 37.7926 139.376 37.5917 139.544 37.4443C139.924 37.1062 140.33 36.7942 140.736 36.4822C141.243 36.0922 141.751 35.7023 142.208 35.2612C142.931 34.5335 142.504 34.0374 141.648 33.8058C141.336 33.7231 141.032 33.6404 140.728 33.5577C140.423 33.475 140.119 33.3924 139.807 33.3097C139.79 33.2104 139.766 33.1029 139.741 32.9954C139.716 32.8879 139.692 32.7804 139.675 32.6812C139.967 32.5446 140.257 32.3781 140.545 32.2122C141.163 31.8557 141.776 31.5025 142.405 31.4573C143.852 31.3912 145.365 31.6558 146.779 31.9535C148.194 32.2843 149.805 31.7881 150.332 30.6635C151.01 29.1748 149.925 28.6749 148.973 28.2366C148.91 28.2074 148.847 28.1785 148.786 28.1496C147.841 27.7053 146.883 27.3179 145.926 26.9313C144.818 26.4831 143.712 26.0362 142.635 25.5034C140.662 24.5442 138.984 25.0734 137.603 26.4296C136.518 27.4881 135.662 28.8442 134.972 30.2004C134.927 30.2899 134.883 30.3761 134.842 30.4591C133.758 32.6167 133.752 32.6285 131.124 32.1189L130.63 32.0196C127.703 31.5235 127.703 31.5235 128.328 28.5465L128.328 28.5465C128.394 28.315 128.459 28.0834 128.525 27.885C129.676 24.8749 129.874 21.7326 129.15 18.7226C128.666 16.7752 127.913 14.9091 127.157 13.0376C126.732 11.9845 126.306 10.9297 125.927 9.85783C125.368 8.23704 123.954 7.44318 122.671 7.57549C121.849 7.67472 120.796 9.29551 120.632 10.354C120.171 13.4302 119.908 16.5395 119.875 19.6487C119.825 22.1677 119.969 24.6867 120.113 27.2057C120.156 27.9613 120.199 28.717 120.237 29.4727C120.303 30.6304 120.007 31.2258 118.724 31.1596C117.776 31.1199 116.817 31.116 115.852 31.112C115.21 31.1094 114.566 31.1067 113.922 31.0935C112.672 31.0935 111.357 31.325 111.455 32.8135C111.521 34.0374 112.014 35.3605 112.705 36.4189C113.809 38.0992 115.481 37.6565 117.059 37.2388ZM124.694 28.273C124.667 28.3641 124.639 28.4553 124.611 28.5465V16.7379C124.94 16.771 125.236 16.771 125.565 16.771C127.011 20.6475 125.852 24.461 124.694 28.273Z" fill="white"/>
<path d="M50.082 33.2104C50.2464 31.4904 50.5096 30.1673 50.5096 28.8442C50.5425 25.5034 50.4767 22.1626 50.4109 18.8218C50.3451 16.1095 50.2793 13.3971 50.082 10.7178C49.8518 7.77396 49.0624 7.17857 45.9378 7.07934C42.4515 6.94703 38.9651 6.5501 35.4787 6.64933C32.4199 6.71549 29.3283 7.11241 26.3023 7.60857C20.9083 8.46858 15.7117 10.1225 10.8768 12.7025C8.50872 13.9925 6.07484 15.3156 4.59478 17.8295C3.73964 19.2849 4.10143 20.3434 5.25259 21.038C6.96288 22.0634 8.80473 22.7911 10.6137 23.6511C11.1728 23.9157 11.732 24.2134 12.1924 24.8749C10.6137 25.2057 9.03497 25.6026 7.45623 25.9003C6.92999 25.9996 6.27219 25.9003 5.77883 25.7019C-0.0427427 23.0888 -2.24639 15.6794 2.8516 11.2471C6.76554 7.87319 11.6333 6.31856 16.4353 4.76392C26.7299 1.42311 37.3206 1.19157 47.9112 2.51466C53.667 3.24236 59.4886 4.40007 64.9813 6.18625C71.066 8.17089 77.052 10.784 81.558 15.5802C85.3732 19.6487 88.3005 24.3457 86.6231 30.3658C85.6035 34.1035 82.9394 36.7497 79.749 38.6682C74.5523 41.7444 68.8952 43.8283 63.0079 45.2506C54.7524 47.2022 46.4312 47.5991 38.0771 46.0775C36.3668 45.7798 34.6894 45.2837 33.012 44.7875C31.2359 44.2583 30.0189 42.3729 30.1505 40.5536C30.2492 39.429 31.7621 38.4367 32.7159 39.0651C35.4129 40.8182 38.5375 40.9505 41.5305 41.3475C50.2464 42.5052 58.6006 41.0498 66.8889 38.2713C71.1318 36.8489 75.0457 34.9305 78.5978 32.2512C79.7161 31.3912 80.7686 30.3327 81.558 29.175C83.2683 26.5619 82.8736 23.9157 80.9002 21.5341C76.5586 16.3079 70.8357 13.331 64.5866 11.214C62.2843 10.4201 59.9162 9.69245 57.5481 9.09705C56.3969 8.79936 55.5747 8.93167 55.6733 10.7509C55.8049 12.9009 55.18 15.0841 55.0484 17.2341C54.9169 19.2518 54.884 21.2364 54.9169 23.2542C54.9169 27.7527 55.0813 32.2512 54.9498 36.7166C54.9169 37.6097 54.2262 38.9659 53.5355 39.2305C52.7132 39.5282 51.1674 39.1974 50.5754 38.5359C49.1611 36.9813 48.0757 35.1289 46.9903 33.3097C46.8259 33.045 47.1548 32.2843 47.4508 31.9866C47.6481 31.8212 48.273 31.9866 48.6348 32.152C48.9966 32.2512 49.3255 32.582 50.082 33.2104Z" fill="white"/>
<path fill-rule="evenodd" clip-rule="evenodd" d="M209.567 32.251C209.879 32.1283 210.196 32.0168 210.515 31.905C210.969 31.7455 211.425 31.5854 211.869 31.391C213.119 30.8617 213.875 31.2917 213.777 32.6148C213.678 34.0041 214.303 34.5002 215.487 34.9303C219.302 36.2533 223.15 37.6426 226.9 39.1642C228.61 39.8588 230.156 40.818 230.781 42.8027C231.57 45.2835 230.452 48.095 227.887 48.3927C223.315 48.955 218.677 49.2197 214.073 49.1866C211.113 49.1866 208.12 48.6904 205.258 47.9958C203.57 47.5859 201.939 46.9573 200.304 46.3273L200.304 46.3272C199.168 45.8895 198.031 45.4511 196.871 45.085C195.786 44.7211 194.569 44.4896 193.451 44.5888C187.958 45.1842 184.274 44.9858 178.716 40.8842C178.601 41.0857 178.495 41.2957 178.389 41.5051L178.389 41.5051C178.13 42.0173 177.872 42.5262 177.499 42.9019C175.821 44.5888 173.256 43.4642 172.598 40.6857C172.269 39.2965 172.105 37.8411 173.716 36.8818C174.703 36.2864 175.032 35.4264 174.539 34.2356C171.677 27.0248 172.368 19.8801 175.196 12.8677C175.915 11.0613 177.014 9.39589 178.102 7.74574C178.409 7.28069 178.715 6.81686 179.012 6.35143C179.439 5.72296 180.13 5.19372 180.821 4.7968C182.893 3.57293 184.176 4.03602 185.656 5.9545C187.892 8.86531 187.563 12.0738 187.201 15.3154C187.132 15.8831 187.068 16.4521 187.004 17.0211L187.004 17.0212C186.731 19.4357 186.459 21.8512 185.82 24.1801C184.866 27.7394 183.538 31.1829 182.212 34.6189L181.939 35.3272C181.479 36.551 181.873 37.1795 182.827 37.7088C185.228 39.0318 187.793 39.2634 190.458 39.1642C195.26 38.9988 199.667 37.4772 203.91 35.4264C204.304 35.228 204.6 34.5002 204.666 33.971C204.71 33.7064 204.578 33.4124 204.447 33.1184C204.381 32.9713 204.315 32.8243 204.271 32.681C203.351 30.0348 203.91 28.2156 206.278 26.7271C210.882 23.8824 215.717 21.8316 221.309 22.1293C223.611 22.2616 225.255 23.287 226.176 25.1063C226.67 26.0986 226.637 27.984 225.979 28.7779C225.303 29.6355 223.916 29.9643 222.666 30.2608L222.666 30.2609C222.518 30.2959 222.372 30.3306 222.23 30.3656C221.868 30.4648 221.013 29.7371 220.881 29.274C220.519 27.8848 219.631 27.8848 218.513 27.9509C215.487 28.0832 212.823 29.1748 210.323 30.7625C210.057 30.9272 209.842 31.1688 209.622 31.4155C209.489 31.5651 209.354 31.7167 209.205 31.8541C209.402 32.0194 209.501 32.1518 209.567 32.251ZM201.673 42.075C201.706 42.1577 201.731 42.2403 201.755 42.323C201.78 42.4057 201.805 42.4884 201.838 42.5711C209.567 44.0596 217.296 45.4158 225.519 43.1665C225.279 43.0271 225.083 42.8974 224.91 42.7831C224.632 42.5988 224.414 42.4543 224.17 42.3727C223.034 41.992 221.892 41.6363 220.75 41.281L220.75 41.2808L220.749 41.2808C218.419 40.5556 216.094 39.8319 213.843 38.8995C210.554 37.5434 207.725 38.0395 204.962 40.0572C204.22 40.5774 203.463 41.0203 202.711 41.4599L202.71 41.46C202.363 41.6633 202.016 41.8658 201.673 42.075ZM178.222 31.1925C181.61 26.3963 184.669 13.1984 183.09 10.5192C179.571 12.603 175.558 25.5363 178.222 31.1925Z" fill="white"/>
<path fill-rule="evenodd" clip-rule="evenodd" d="M375.531 48.889C380.136 47.8636 384.214 45.6805 388.523 43.1666C388.523 43.9274 388.523 44.4566 388.49 45.052C388.49 46.6397 389.707 48.459 391.055 48.9551C392.831 49.5836 394.081 49.1867 395.331 47.4336C395.792 46.7749 396.25 46.1145 396.708 45.4543C399.747 41.0755 402.778 36.7068 406.579 32.9126C407.566 31.9203 408.224 30.498 408.816 29.1749C409.046 28.6126 408.783 27.1571 408.619 27.1241C408.595 27.1208 408.571 27.1175 408.547 27.1141C407.6 26.9824 406.335 26.8064 405.79 27.3225C402.929 29.9356 400.199 32.7472 397.502 35.5588C396.759 36.3286 396.108 37.176 395.455 38.0266C395.154 38.4186 394.853 38.8112 394.542 39.1973C394.41 39.1642 394.246 39.0981 394.114 39.0319C394.133 38.8678 394.147 38.698 394.161 38.5266C394.194 38.1111 394.228 37.6866 394.344 37.3119C394.636 36.4419 394.95 35.5761 395.263 34.7101C395.83 33.1394 396.399 31.5678 396.844 29.9687C397.436 27.951 396.416 26.5618 394.344 26.0325C392.568 25.5694 391.154 26.3302 390.562 28.2818C390.503 28.4799 390.443 28.6784 390.383 28.8771C389.843 30.6696 389.296 32.4889 389.148 34.3349C388.95 36.5842 387.7 37.8742 386.155 39.0981C385.464 39.6273 384.74 40.0904 384.017 40.5534L384.017 40.5535C380.07 43.0343 375.991 45.052 371.19 44.8866C370.578 44.8654 369.966 44.7218 369.242 44.5517C368.837 44.4565 368.396 44.3531 367.9 44.2581C368.397 43.8948 368.661 43.6874 368.863 43.5289C368.956 43.4564 369.035 43.3942 369.117 43.332C371.354 41.7112 373.492 40.0573 374.446 37.2457C375.432 34.4011 373.689 31.0603 370.762 30.3657C366.42 29.3403 361.849 32.8465 361.618 37.3119C361.586 37.8411 361.52 38.3704 361.421 39.1642C360.881 38.8385 360.392 38.5492 359.93 38.2758C359.406 37.966 358.917 37.6767 358.428 37.378C357.211 36.6503 356.389 37.0142 355.797 38.2381C354.711 40.4873 355.6 42.935 357.968 44.0597C358.49 44.2993 359.017 44.5287 359.544 44.7578C360.908 45.3509 362.269 45.9423 363.526 46.7059C367.276 48.9882 371.19 49.8482 375.531 48.889ZM366.519 38.9988C366.355 38.8665 366.19 38.7673 366.026 38.6681C366.98 37.2127 367.933 35.7573 369.019 34.1034C369.775 36.4519 368.92 37.9073 366.519 38.9988Z" fill="white"/>
<path d="M158.028 16.6385C158.39 16.2747 158.949 15.4808 159.738 15.0177C160.659 14.5216 161.481 14.9516 161.942 15.977C162.896 18.127 163.948 20.2109 164.77 22.394C164.968 22.8901 164.672 23.8163 164.277 24.2463C163.685 24.8748 162.928 24.8748 162.205 24.114C160.297 22.1624 158.159 20.3763 158.028 16.6385Z" fill="white"/>
</svg>
