<svg width="133" height="39" viewBox="0 0 133 39" fill="none" xmlns="http://www.w3.org/2000/svg">
<path d="M20.5755 39C17.6211 39 14.8777 38.5383 12.3453 37.6148C9.8481 36.6557 7.66745 35.306 5.80334 33.5656C3.97441 31.8251 2.54995 29.765 1.52997 27.3852C0.509991 25.0055 0 22.377 0 19.5C0 16.623 0.509991 13.9945 1.52997 11.6148C2.54995 9.23497 3.97441 7.17486 5.80334 5.43443C7.66745 3.69399 9.8481 2.36202 12.3453 1.43853C14.8777 0.479508 17.6211 0 20.5755 0C24.1982 0 27.3988 0.639344 30.1774 1.91803C32.9911 3.19672 35.3125 5.04371 37.1414 7.45902L29.2805 14.5451C28.1902 13.1598 26.9767 12.0943 25.6402 11.3484C24.3389 10.5669 22.8617 10.1762 21.2086 10.1762C19.9072 10.1762 18.729 10.3893 17.6738 10.8156C16.6187 11.2418 15.7042 11.8634 14.9304 12.6803C14.1918 13.4973 13.6115 14.4918 13.1894 15.6639C12.7674 16.8005 12.5563 18.0792 12.5563 19.5C12.5563 20.9208 12.7674 22.2172 13.1894 23.3893C13.6115 24.526 14.1918 25.5027 14.9304 26.3197C15.7042 27.1366 16.6187 27.7582 17.6738 28.1844C18.729 28.6107 19.9072 28.8238 21.2086 28.8238C22.8617 28.8238 24.3389 28.4508 25.6402 27.7049C26.9767 26.9235 28.1902 25.8402 29.2805 24.4549L37.1414 31.541C35.3125 33.9208 32.9911 35.7678 30.1774 37.082C27.3988 38.3607 24.1982 39 20.5755 39Z" fill="black"/>
<path d="M50.0744 38.1475L38.2567 0.852458H51.0768L60.626 32.3402H54.1895L64.319 0.852458H75.7674L85.211 32.3402H79.0384L89.0096 0.852458H100.827L89.0096 38.1475H75.6619L67.9593 12.3607H71.5468L63.4221 38.1475H50.0744Z" fill="black"/>
<path d="M116.118 39C113.585 39 111.018 38.7158 108.415 38.1475C105.812 37.5792 103.526 36.7445 101.556 35.6434L105.777 26.373C107.36 27.2964 109.013 27.9891 110.736 28.4508C112.495 28.8771 114.148 29.0902 115.695 29.0902C117.102 29.0902 118.245 28.8593 119.125 28.3975C120.039 27.9003 120.496 27.1721 120.496 26.2131C120.496 25.3962 120.162 24.7746 119.494 24.3484C118.826 23.8866 117.7 23.6557 116.118 23.6557H111.211V15.9303L120.76 6.12705L121.868 10.3361H103.456V0.852458H130.995V8.57787L121.446 18.3811L115.484 14.9713H118.755C123.398 14.9713 126.933 16.0191 129.36 18.1148C131.787 20.2104 133 22.9098 133 26.2131C133 28.3443 132.402 30.3866 131.206 32.3402C130.046 34.2937 128.217 35.8921 125.719 37.1352C123.257 38.3784 120.057 39 116.118 39Z" fill="black"/>
</svg>
