<svg width="137" height="40" viewBox="0 0 137 40" fill="none" xmlns="http://www.w3.org/2000/svg">
<path d="M21.1943 40C18.151 40 15.3251 39.5264 12.7166 38.5792C10.1443 37.5956 7.89805 36.2113 5.97788 34.4262C4.09394 32.6412 2.62664 30.5282 1.57599 28.0874C0.525329 25.6466 0 22.9508 0 20C0 17.0492 0.525329 14.3534 1.57599 11.9126C2.62664 9.47177 4.09394 7.35884 5.97788 5.57377C7.89805 3.78871 10.1443 2.42259 12.7166 1.47541C15.3251 0.491803 18.151 0 21.1943 0C24.9259 0 28.2228 0.655738 31.085 1.96721C33.9833 3.27869 36.3745 5.17304 38.2584 7.65027L30.1611 14.918C29.038 13.4973 27.7881 12.4044 26.4114 11.6393C25.0709 10.8379 23.5492 10.4372 21.8464 10.4372C20.5059 10.4372 19.2922 10.6557 18.2054 11.0929C17.1185 11.5301 16.1765 12.1676 15.3795 13.0055C14.6186 13.8434 14.0208 14.8634 13.5861 16.0656C13.1513 17.2313 12.934 18.5428 12.934 20C12.934 21.4572 13.1513 22.7869 13.5861 23.9891C14.0208 25.1548 14.6186 26.1567 15.3795 26.9945C16.1765 27.8324 17.1185 28.4699 18.2054 28.9071C19.2922 29.3443 20.5059 29.5628 21.8464 29.5628C23.5492 29.5628 25.0709 29.1803 26.4114 28.4153C27.7881 27.6138 29.038 26.5027 30.1611 25.082L38.2584 32.3497C36.3745 34.7905 33.9833 36.6849 31.085 38.0328C28.2228 39.3443 24.9259 40 21.1943 40Z" fill="white"/>
<path d="M51.5804 39.1257L39.4073 0.874315H52.613L62.4493 33.1694H55.8193L66.2534 0.874315H78.0461L87.7738 33.1694H81.4155L91.6866 0.874315H103.86L91.6866 39.1257H77.9374L70.0032 12.6776H73.6986L65.3296 39.1257H51.5804Z" fill="white"/>
<path d="M119.61 40C117.001 40 114.357 39.7086 111.676 39.1257C108.995 38.5428 106.64 37.6867 104.611 36.5574L108.958 27.0492C110.589 27.9964 112.291 28.7067 114.067 29.1803C115.878 29.6175 117.581 29.8361 119.175 29.8361C120.624 29.8361 121.802 29.5993 122.707 29.1257C123.649 28.6157 124.12 27.8689 124.12 26.8852C124.12 26.0474 123.776 25.4098 123.088 24.9727C122.399 24.4991 121.24 24.2623 119.61 24.2623H114.556V16.3388L124.392 6.28415L125.533 10.6011H106.567V0.874315H134.935V8.79782L125.099 18.8525L118.958 15.3552H122.327C127.109 15.3552 130.75 16.4299 133.25 18.5792C135.75 20.7286 137 23.4973 137 26.8852C137 29.071 136.384 31.1658 135.152 33.1694C133.957 35.173 132.073 36.8124 129.5 38.0874C126.964 39.3625 123.668 40 119.61 40Z" fill="white"/>
</svg>
