<svg width="42" height="42" viewBox="0 0 42 42" fill="none" xmlns="http://www.w3.org/2000/svg">
<path fill-rule="evenodd" clip-rule="evenodd" d="M19 30.5C19 29.672 19.7025 29 20.5682 29H40.4318C41.2975 29 42 29.672 42 30.5C42 31.328 41.2975 32 40.4318 32H20.5682C19.7025 32 19 31.328 19 30.5ZM0 20.5C0 19.672 0.7056 19 1.575 19H40.425C41.2944 19 42 19.672 42 20.5C42 21.328 41.2944 22 40.425 22H1.575C0.7056 22 0 21.328 0 20.5ZM9 10.5C9 9.672 9.693 9 10.5469 9H40.4531C41.307 9 42 9.672 42 10.5C42 11.328 41.307 12 40.4531 12H10.5469C9.693 12 9 11.328 9 10.5Z" fill="#333333"/>
</svg>
